<svg width="90" height="90" viewBox="0 0 90 90" fill="none" xmlns="http://www.w3.org/2000/svg">
<g id="eva:message-circle-outline">
<g id="Group">
<path id="Vector" d="M45 48.75C47.0711 48.75 48.75 47.0711 48.75 45C48.75 42.9289 47.0711 41.25 45 41.25C42.9289 41.25 41.25 42.9289 41.25 45C41.25 47.0711 42.9289 48.75 45 48.75Z" fill="#B08E44"/>
<path id="Vector_2" d="M60 48.75C62.0711 48.75 63.75 47.0711 63.75 45C63.75 42.9289 62.0711 41.25 60 41.25C57.9289 41.25 56.25 42.9289 56.25 45C56.25 47.0711 57.9289 48.75 60 48.75Z" fill="#B08E44"/>
<path id="Vector_3" d="M30 48.75C32.0711 48.75 33.75 47.0711 33.75 45C33.75 42.9289 32.0711 41.25 30 41.25C27.9289 41.25 26.25 42.9289 26.25 45C26.25 47.0711 27.9289 48.75 30 48.75Z" fill="#B08E44"/>
<path id="Vector_4" d="M71.5125 18.4876C65.3595 12.2944 57.2386 8.4421 48.5498 7.59471C39.861 6.74732 31.1488 8.95797 23.9152 13.8455C16.6816 18.7331 11.3799 25.9913 8.9241 34.3688C6.46833 42.7464 7.01239 51.7182 10.4625 59.7375C10.8221 60.4829 10.9401 61.3219 10.8 62.1375L7.49999 78C7.37285 78.6082 7.39881 79.2384 7.57554 79.8341C7.75227 80.4297 8.07423 80.9721 8.51249 81.4125C8.87175 81.7692 9.29951 82.0494 9.76999 82.2363C10.2405 82.4232 10.7439 82.5129 11.25 82.5H12L28.05 79.275C28.8657 79.177 29.6929 79.2933 30.45 79.6125C38.4694 83.0626 47.4412 83.6067 55.8187 81.1509C64.1962 78.6952 71.4544 73.3935 76.342 66.1598C81.2296 58.9262 83.4402 50.214 82.5928 41.5252C81.7454 32.8364 77.8931 24.7155 71.7 18.5626L71.5125 18.4876ZM74.625 49.8375C73.8918 54.315 72.1526 58.5678 69.5383 62.2759C66.924 65.9841 63.5027 69.051 59.5318 71.2458C55.5609 73.4406 51.144 74.7061 46.6133 74.9472C42.0827 75.1883 37.5563 74.3986 33.375 72.6375C31.892 72.0068 30.299 71.6754 28.6875 71.6625C27.9835 71.6675 27.2812 71.7302 26.5875 71.85L16.0125 73.9875L18.15 63.4125C18.5757 61.1223 18.3013 58.757 17.3625 56.625C15.6015 52.4437 14.8118 47.9174 15.0528 43.3867C15.2939 38.8561 16.5595 34.4391 18.7543 30.4682C20.9491 26.4974 24.016 23.076 27.7241 20.4617C31.4322 17.8474 35.6851 16.1082 40.1625 15.3751C44.8623 14.6037 49.6781 14.9625 54.2118 16.4215C58.7454 17.8806 62.8665 20.3981 66.2342 23.7658C69.6019 27.1335 72.1194 31.2546 73.5785 35.7883C75.0376 40.3219 75.3963 45.1378 74.625 49.8375Z" fill="#B08E44"/>
</g>
</g>
</svg>
